<svg width="40" height="40" viewBox="0 0 40 40" fill="none" xmlns="http://www.w3.org/2000/svg">
<path fill-rule="evenodd" clip-rule="evenodd" d="M17.9533 4.47999C18.5384 4.02481 19.2586 3.77768 20 3.77768C20.7413 3.77768 21.4615 4.02481 22.0466 4.47999L36.02 15.3467C37.275 16.325 36.5816 18.3333 34.995 18.3333H33.3333V31.6667C33.3333 32.5507 32.9821 33.3986 32.357 34.0237C31.7319 34.6488 30.884 35 30 35H9.99997C9.11591 35 8.26807 34.6488 7.64295 34.0237C7.01783 33.3986 6.66664 32.5507 6.66664 31.6667V18.3333H5.00497C3.41664 18.3333 2.72664 16.3233 3.97997 15.3483L17.9533 4.47999ZM9.37497 15.375C9.75664 15.6833 9.99997 16.155 9.99997 16.6833V31.6667H30V16.6833C30 16.155 30.2433 15.6833 30.625 15.375L20 7.11166L9.37497 15.375Z" fill="black"/>
</svg>
