<svg width="34" height="31" viewBox="0 0 34 31" fill="none" xmlns="http://www.w3.org/2000/svg">
<g clip-path="url(#clip0_6_12)">
<path d="M17 0C7.61122 0 0 6.93964 0 15.5C0 24.0608 7.61122 31 17 31C26.3893 31 34 24.0608 34 15.5C34 6.93964 26.3893 0 17 0ZM17 29.093C8.79803 29.093 2.125 22.9783 2.125 15.4999C2.125 8.02167 8.79803 1.93744 17 1.93744C25.202 1.93744 31.875 8.0217 31.875 15.4999C31.875 22.9782 25.202 29.093 17 29.093ZM24.4375 14.5312H18.0625V8.71875C18.0625 8.184 17.5865 7.75 17 7.75C16.4135 7.75 15.9375 8.184 15.9375 8.71875V14.5312H9.5625C8.976 14.5312 8.5 14.9653 8.5 15.5C8.5 16.0347 8.976 16.4688 9.5625 16.4688H15.9375V22.2812C15.9375 22.816 16.4135 23.25 17 23.25C17.5865 23.25 18.0625 22.816 18.0625 22.2812V16.4688H24.4375C25.024 16.4688 25.5 16.0347 25.5 15.5C25.5 14.9653 25.024 14.5312 24.4375 14.5312Z" fill="white"/>
</g>
<defs>
<clipPath id="clip0_6_12">
<rect width="34" height="31" fill="white"/>
</clipPath>
</defs>
</svg>
